<?xml version="1.0" encoding="UTF-8"?>
<svg width="223px" height="166px" viewBox="0 0 223 166" version="1.1" xmlns="http://www.w3.org/2000/svg" xmlns:xlink="http://www.w3.org/1999/xlink">
    <!-- Generator: Sketch 52.2 (67145) - http://www.bohemiancoding.com/sketch -->
    <title>暂无直播@2x</title>
    <desc>Created with Sketch.</desc>
    <g id="Page-1" stroke="none" stroke-width="1" fill="none" fill-rule="evenodd">
        <g id="Data-" transform="translate(-849.000000, -502.000000)">
            <g id="暂无直播" transform="translate(849.000000, 502.000000)">
                <path d="M213.359375,74.8125 L170.692708,74.8125 C175.892708,74.8125 180.026042,70.6791666 180.026042,65.4791666 C180.026041,60.2791666 175.892708,56.1458332 170.692708,56.1458334 L201.359375,56.1458334 C206.559375,56.1458334 210.692708,52.0125 210.692708,46.8125 C210.692708,41.6125 206.559375,37.4791666 201.359375,37.4791666 L142.692708,37.4791666 C143.092708,37.4791666 143.626042,37.4791666 144.026042,37.3458334 C139.492708,36.6791668 136.026042,32.8125 136.026042,28.1458334 C136.026042,23.4791668 139.492708,19.6125 144.026042,18.9458334 C143.626042,18.9458334 143.092708,18.8125 142.692708,18.8125 L157.359375,18.8125 C162.559375,18.8125 166.692708,14.6791666 166.692708,9.4791666 C166.692708,4.2791666 162.559375,0.145833203 157.359375,0.145833398 L29.359375,0.145833398 C24.159375,0.145833398 20.0260416,4.2791668 20.0260416,9.4791666 C20.0260416,14.6791664 24.159375,18.8125 29.359375,18.8125 L74.6927084,18.8125 C79.8927084,18.8125 84.0260418,22.9458334 84.0260416,28.1458334 C84.0260414,33.3458334 79.8927082,37.4791668 74.6927084,37.4791666 L14.6927084,37.4791666 C9.4927084,37.4791666 5.359375,41.6125 5.359375,46.8125 C5.359375,52.0125 9.4927084,56.1458334 14.6927084,56.1458334 L88.0260416,56.1458334 C82.8260416,56.1458334 78.6927082,60.2791668 78.6927084,65.4791666 C78.6927086,70.6791664 82.8260418,74.8125 88.0260416,74.8125 L61.359375,74.8125 C56.159375,74.8125 52.0260416,78.9458334 52.0260416,84.1458334 C52.0260416,89.3458334 56.159375,93.4791668 61.359375,93.4791666 L121.359375,93.4791666 C116.959375,93.4791666 113.359375,97.0791666 113.359375,101.479167 C113.359375,105.879167 116.959375,109.479167 121.359375,109.479167 L32.0260416,109.479167 C26.8260416,109.479167 22.6927082,113.6125 22.6927084,118.8125 C22.6927086,124.0125 26.8260418,128.145833 32.0260416,128.145833 L72.0260416,128.145833 L71.359375,128.145833 C76.159375,128.545833 80.0260416,132.545833 80.0260416,137.479167 C80.0260416,142.4125 76.159375,146.4125 71.359375,146.8125 L72.0260416,146.8125 L54.6927084,146.8125 C49.4927084,146.8125 45.359375,150.945833 45.359375,156.145833 C45.359375,161.345833 49.4927084,165.479167 54.6927084,165.479167 L194.692708,165.479167 C199.892708,165.479167 204.026042,161.345833 204.026042,156.145833 C204.026041,150.945834 199.892708,146.8125 194.692708,146.8125 L120.026042,146.8125 C120.959375,146.8125 121.892708,146.679167 122.692708,146.4125 C118.826042,145.2125 116.026042,141.745833 116.026042,137.479167 C116.026041,133.2125 118.826042,129.745833 122.692708,128.545833 C121.892708,128.279167 120.959375,128.145833 120.026042,128.145833 L172.026042,128.145833 C177.226042,128.145833 181.359375,124.0125 181.359375,118.8125 C181.359375,113.6125 177.226042,109.479167 172.026042,109.479167 C176.426042,109.479167 180.026042,105.879167 180.026042,101.479167 C180.026042,97.0791666 176.426042,93.4791666 172.026042,93.4791666 L213.359375,93.4791666 C218.559375,93.4791666 222.692708,89.3458332 222.692708,84.1458334 C222.692708,78.9458336 218.559375,74.8125 213.359375,74.8125 Z" id="路径" fill="#F0F2F9"></path>
                <path d="M89.359375,10.8125 C87.0927084,10.8125 85.359375,9.0791666 85.359375,6.8125 C85.359375,4.5458334 87.0927084,2.8125 89.359375,2.8125 C91.6260416,2.8125 93.359375,4.5458334 93.359375,6.8125 C93.359375,9.0791666 91.6260416,10.8125 89.359375,10.8125 Z M89.359375,4.1458334 C87.8927084,4.1458334 86.6927084,5.3458334 86.6927084,6.8125 C86.6927084,8.2791666 87.8927084,9.4791666 89.359375,9.4791666 C90.8260416,9.4791666 92.0260416,8.2791666 92.0260416,6.8125 C92.0260416,5.3458334 90.8260416,4.1458334 89.359375,4.1458334 Z M4.0260416,69.4791666 C1.759375,69.4791666 0.0260416016,67.7458332 0.0260416016,65.4791666 C0.0260416016,63.2125 1.759375,61.4791666 4.0260416,61.4791666 C6.2927082,61.4791666 8.0260416,63.2125 8.0260416,65.4791666 C8.0260416,67.7458332 6.2927082,69.4791666 4.0260416,69.4791666 Z M4.0260416,62.8125 C2.559375,62.8125 1.359375,64.0125 1.359375,65.4791666 C1.359375,66.9458332 2.559375,68.1458332 4.0260416,68.1458334 C5.4927082,68.1458336 6.6927082,66.9458334 6.6927084,65.4791666 C6.69270859,64.0124998 5.4927084,62.8125 4.0260416,62.8125 Z M210.692708,112.145833 C208.426042,112.145833 206.692708,110.4125 206.692708,108.145833 C206.692708,105.879167 208.426042,104.145833 210.692708,104.145833 C212.959375,104.145833 214.692708,105.879167 214.692708,108.145833 C214.692708,110.4125 212.959375,112.145833 210.692708,112.145833 Z M210.692708,105.479167 C209.226042,105.479167 208.026042,106.679167 208.026042,108.145833 C208.026041,109.6125 209.226042,110.8125 210.692708,110.8125 C212.159375,110.8125 213.359375,109.6125 213.359375,108.145833 C213.359375,106.679167 212.159375,105.479167 210.692708,105.479167 Z" id="形状" fill="#B1C4DE" fill-rule="nonzero"></path>
                <path d="M185.892708,156.145833 L94.159375,156.145833 C92.159375,156.145833 90.4260416,154.545833 90.4260416,152.4125 L90.4260416,31.7458334 C90.4260416,29.7458334 92.0260416,28.0125 94.159375,28.0125 L185.892708,28.0125 C187.892708,28.0125 189.626042,29.6125 189.626042,31.7458334 L189.626042,152.4125 C189.492708,154.545833 187.892708,156.145833 185.892708,156.145833 Z" id="路径" fill="#DAE5EF"></path>
                <path d="M180.159375,152.0125 L94.159375,152.0125 C92.159375,152.0125 90.4260416,150.4125 90.4260416,148.279167 L90.4260416,31.7458334 C90.4260416,29.7458334 92.0260416,28.0125 94.159375,28.0125 L180.159375,28.0125 C182.159375,28.0125 183.892708,29.6125 183.892708,31.7458334 L183.892708,148.279167 C183.759375,150.279167 182.159375,152.0125 180.159375,152.0125 Z" id="路径" fill="#FFFFFF"></path>
                <path d="M189.492708,89.4791666 L90.4260416,89.4791666 C90.0260416,89.4791666 89.759375,89.2125 89.759375,88.8125 C89.759375,88.4125 90.0260416,88.1458334 90.4260416,88.1458334 L189.492708,88.1458334 C189.892708,88.1458334 190.159375,88.4125 190.159375,88.8125 C190.159375,89.2125 189.892708,89.4791666 189.492708,89.4791666 Z M189.492708,83.3458334 C189.359375,83.3458334 189.226042,83.3458334 189.092708,83.2125 L156.959375,56.6791666 L141.626042,72.5458334 C141.359375,72.8125 140.959375,72.8125 140.692708,72.5458334 L117.892708,51.6125 L90.959375,79.7458334 C90.6927084,80.0125 90.2927084,80.0125 90.0260416,79.7458334 C89.759375,79.4791668 89.759375,79.0791668 90.0260416,78.8125 L117.359375,50.1458334 C117.626042,49.8791668 118.026042,49.8791668 118.292708,50.1458334 L141.092708,71.0791666 L156.292708,55.2125 C156.559375,54.9458334 156.959375,54.9458334 157.226042,55.2125 L189.892708,82.1458334 C190.159375,82.4125 190.159375,82.8125 190.026042,83.0791666 C189.892708,83.2125 189.759375,83.3458332 189.492708,83.3458334 Z M167.492708,49.7458334 C163.759375,49.7458334 160.826042,46.6791668 160.826042,43.0791666 C160.826041,39.4791664 163.892708,36.4125 167.492708,36.4125 C171.226042,36.4125 174.159375,39.4791666 174.159375,43.0791666 C174.159375,46.6791666 171.226042,49.7458332 167.492708,49.7458334 Z M167.492708,37.6125 C164.559375,37.6125 162.159375,40.0125 162.159375,42.9458334 C162.159375,45.8791668 164.559375,48.2791668 167.492708,48.2791666 C170.426042,48.2791664 172.826042,45.8791666 172.826042,42.9458334 C172.826041,40.0125002 170.426042,37.6125 167.492708,37.6125 Z" id="形状" fill="#B1C4DE" fill-rule="nonzero"></path>
                <path d="M101.226042,104.545833 L180.559375,104.545833 L180.559375,107.2125 L101.226042,107.2125 L101.226042,104.545833 Z M101.226042,116.545833 L180.559375,116.545833 L180.559375,119.2125 L101.226042,119.2125 L101.226042,116.545833 Z M101.226042,128.545833 L121.892708,128.545833 L121.892708,131.2125 L101.226042,131.2125 L101.226042,128.545833 Z" id="形状" fill="#F1F5F8" fill-rule="nonzero"></path>
                <path d="M127.492708,28.4125 L126.826042,28.4125 C126.426042,28.4125 126.159375,28.1458334 126.159375,27.7458334 C126.159375,27.3458334 126.426042,27.0791668 126.826042,27.0791666 L127.492708,27.0791666 C127.892708,27.0791666 128.159375,27.3458332 128.159375,27.7458334 C128.159375,28.1458336 127.892708,28.4125 127.492708,28.4125 Z" id="路径" fill="#B1C4DE"></path>
                <path d="M185.892708,152.279167 L94.159375,152.279167 C91.759375,152.279167 89.759375,150.279167 89.759375,147.879167 L89.759375,31.4791666 C89.759375,29.0791666 91.759375,27.0791666 94.159375,27.0791666 L120.826042,27.0791666 C121.226042,27.0791666 121.492708,27.3458332 121.492708,27.7458334 C121.492709,28.1458336 121.226042,28.4125 120.826042,28.4125 L94.159375,28.4125 C92.559375,28.4125 91.0927084,29.7458334 91.0927084,31.4791666 L91.0927084,148.0125 C91.0927084,149.6125 92.4260418,151.079167 94.159375,151.079167 L185.892708,151.079167 C187.492708,151.079167 188.959375,149.745833 188.959375,148.0125 L188.959375,31.4791666 C188.959375,29.8791666 187.626042,28.4125 185.892708,28.4125 L130.959375,28.4125 C130.559375,28.4125 130.292708,28.1458334 130.292708,27.7458334 C130.292708,27.3458334 130.559375,27.0791668 130.959375,27.0791666 L185.892708,27.0791666 C188.292708,27.0791666 190.292708,29.0791666 190.292708,31.4791666 L190.292708,148.0125 C190.159375,150.279167 188.292708,152.279167 185.892708,152.279167 Z" id="路径" fill="#B1C4DE"></path>
                <path d="M105.759375,76.0125 L85.359375,76.0125 C84.0260416,76.0125 82.959375,75.0791666 82.6927084,73.7458334 L81.6260416,67.0791666 C81.359375,65.3458332 79.759375,64.0125 78.0260416,64.0125 L51.759375,64.0125 C49.8927084,64.0125 48.4260416,65.3458334 48.159375,67.0791666 L47.0927084,73.7458334 C46.8260418,75.0791668 45.759375,76.0125 44.4260416,76.0125 L24.0260416,76.0125 C20.8260416,76.0125 18.2927082,78.5458334 18.2927084,81.7458334 L18.2927084,131.745833 C18.2927084,134.945833 20.8260418,137.479167 24.0260416,137.479167 L105.759375,137.479167 C108.959375,137.479167 111.492708,134.945833 111.492708,131.745833 L111.492708,81.7458334 C111.492708,78.6791668 108.959375,76.0125 105.759375,76.0125 Z" id="路径" fill="#FFFFFF"></path>
                <path d="M105.759375,84.2791666 L85.4927084,84.2791666 C84.159375,84.2791666 83.0927084,83.3458332 82.8260416,82.0125 L81.759375,75.3458334 C81.4927084,73.6125 79.8927084,72.2791668 78.159375,72.2791666 L52.959375,72.2791666 C51.2260416,72.2791666 49.6260416,73.6125 49.359375,75.3458334 L48.2927084,82.0125 C48.0260418,83.3458334 46.959375,84.2791666 45.6260416,84.2791666 L24.4260416,84.2791666 C21.2260416,84.2791666 18.6927082,86.8125 18.6927084,90.0125 L18.6927084,135.745833 C18.6927084,138.945833 21.2260418,141.479167 24.4260416,141.479167 L105.759375,141.479167 C108.959375,141.479167 111.492708,138.945833 111.492708,135.745833 L111.492708,90.0125 C111.492708,86.8125 108.959375,84.2791666 105.759375,84.2791666 Z" id="路径" fill="#DAE5EF"></path>
                <path d="M106.292708,82.0125 L85.8927084,82.0125 C84.559375,82.0125 83.4927084,81.0791666 83.2260416,79.7458334 L82.159375,73.0791666 C81.8927084,71.3458332 80.2927084,70.0125 78.559375,70.0125 L52.2927084,70.0125 C50.4260418,70.0125 48.959375,71.3458334 48.6927084,73.0791666 L47.6260416,79.7458334 C47.359375,81.0791668 46.2927082,82.0125 44.959375,82.0125 L24.4260416,82.0125 C21.2260416,82.0125 18.6927082,84.5458334 18.6927084,87.7458334 L18.6927084,126.0125 C18.6927084,129.2125 21.2260418,131.745833 24.4260416,131.745833 L106.159375,131.745833 C109.359375,131.745833 111.892708,129.2125 111.892708,126.0125 L111.892708,87.7458334 C112.026042,84.6791668 109.492708,82.0125 106.292708,82.0125 Z" id="路径" fill="#F1F5F8"></path>
                <path d="M80.559375,101.745833 L62.0260416,91.0791666 C58.8260416,89.2125 54.8260416,91.4791666 54.8260416,95.2125 L54.8260416,116.545833 C54.8260416,120.279167 58.8260416,122.545833 62.0260416,120.679167 L80.559375,110.0125 C83.759375,108.145833 83.759375,103.6125 80.559375,101.745833 Z" id="路径" fill="#BEEBDE"></path>
                <path d="M59.6260416,122.0125 C58.6927082,122.0125 57.759375,121.745833 56.8260416,121.2125 C55.0927082,120.279167 54.0260416,118.4125 54.0260416,116.4125 L54.0260416,95.0791666 C54.0260416,93.0791666 55.0927082,91.3458332 56.8260416,90.2791666 C58.559375,89.3458332 60.559375,89.3458332 62.2927084,90.2791666 L80.8260416,100.945833 C82.559375,101.879167 83.6260416,103.745833 83.6260416,105.745833 C83.6260416,107.745833 82.559375,109.479167 80.8260416,110.545833 L62.2927084,121.2125 C61.4927084,121.879167 60.559375,122.0125 59.6260416,122.0125 Z M59.6260416,91.0791666 C58.959375,91.0791666 58.159375,91.2125 57.4927084,91.6125 C56.159375,92.4125 55.359375,93.7458334 55.359375,95.2125 L55.359375,116.545833 C55.359375,118.0125 56.159375,119.345833 57.4927084,120.145833 C58.8260418,120.945833 60.2927084,120.945833 61.6260416,120.145833 L80.159375,109.479167 C81.4927084,108.679167 82.2927084,107.345833 82.2927084,105.879167 C82.2927084,104.4125 81.4927084,103.079167 80.159375,102.279167 L61.6260416,91.6125 C61.0927082,91.2125 60.4260416,91.0791666 59.6260416,91.0791666 Z M18.159375,98.5458334 C17.759375,98.5458334 17.4927084,98.2791668 17.4927084,97.8791666 L17.4927084,97.3458334 C17.4927084,96.9458334 17.759375,96.6791668 18.159375,96.6791666 C18.559375,96.6791664 18.8260416,96.9458332 18.8260416,97.3458334 L18.8260416,97.8791666 C18.8260416,98.2791666 18.559375,98.5458332 18.159375,98.5458334 Z" id="形状" fill="#B1C4DE" fill-rule="nonzero"></path>
                <path d="M105.759375,138.0125 L24.0260416,138.0125 C20.4260416,138.0125 17.6260416,135.079167 17.6260416,131.6125 L17.6260416,104.145833 C17.6260416,103.745833 17.8927082,103.479167 18.2927084,103.479167 C18.6927086,103.479166 18.959375,103.745833 18.959375,104.145833 L18.959375,131.479167 C18.959375,134.279167 21.2260416,136.545833 24.0260416,136.545833 L105.759375,136.545833 C108.559375,136.545833 110.826042,134.279167 110.826042,131.479167 L110.826042,81.4791666 C110.826042,78.6791666 108.559375,76.4125 105.759375,76.4125 L85.359375,76.4125 C83.759375,76.4125 82.2927084,75.2125 82.0260416,73.6125 L80.959375,66.9458334 C80.6927084,65.4791668 79.4927084,64.4125 78.0260416,64.4125 L51.759375,64.4125 C50.2927084,64.4125 48.959375,65.4791666 48.8260416,66.9458334 L47.759375,73.6125 C47.4927084,75.2125 46.159375,76.4125 44.4260416,76.4125 L24.0260416,76.4125 C21.2260416,76.4125 18.959375,78.6791666 18.959375,81.4791666 L18.959375,92.6791666 C18.959375,93.0791666 18.6927084,93.3458332 18.2927084,93.3458334 C17.8927084,93.3458336 17.6260418,93.0791668 17.6260416,92.6791666 L17.6260416,81.4791666 C17.6260416,77.8791666 20.559375,75.0791666 24.0260416,75.0791666 L44.4260416,75.0791666 C45.359375,75.0791666 46.2927082,74.4125 46.4260416,73.3458334 L47.4927084,66.6791666 C47.8927084,64.5458332 49.6260418,63.0791666 51.759375,63.0791666 L77.8927084,63.0791666 C80.0260418,63.0791666 81.8927084,64.5458332 82.159375,66.6791666 L83.2260416,73.3458334 C83.359375,74.2791668 84.2927082,75.0791668 85.2260416,75.0791666 L105.626042,75.0791666 C109.226042,75.0791666 112.026042,78.0125 112.026042,81.4791666 L112.026042,131.479167 C112.159375,135.079167 109.359375,138.0125 105.759375,138.0125 Z" id="路径" fill="#B1C4DE"></path>
            </g>
        </g>
    </g>
</svg>